<svg viewBox="0 0 24 24" xmlns="http://www.w3.org/2000/svg" xmlns:xlink="http://www.w3.org/1999/xlink" width="24.000000" height="24.000000" fill="none">
	<rect id="Видео 1" width="24.000000" height="24.000000" x="0.000000" y="0.000000" />
	<path id="Форма 3" d="M4.5 3C3.67158 3 3 3.67158 3 4.5L3 19.5C3 20.3284 3.67158 21 4.5 21L19.5 21C20.3284 21 21 20.3284 21 19.5L21 4.5C21 3.67158 20.3284 3 19.5 3L4.5 3Z" fill-rule="nonzero" stroke="rgb(255,255,255)" stroke-linecap="round" stroke-linejoin="round" stroke-width="2" />
	<path id="Форма 4" d="M10.25 10.9689L12.875 12.4845L15.5 14L12.875 15.5156L10.25 17.0311L10.25 14L10.25 10.9689Z" fill-rule="nonzero" stroke="rgb(255,255,255)" stroke-linecap="round" stroke-linejoin="round" stroke-width="2" />
	<path id="Форма 5" d="M3 7.5L21 7.5" stroke="rgb(255,255,255)" stroke-linecap="round" stroke-linejoin="round" stroke-width="2" />
	<path id="Форма 6" d="M16.5 3L13.5 7.5" stroke="rgb(255,255,255)" stroke-linecap="round" stroke-linejoin="round" stroke-width="2" />
	<path id="Форма 7" d="M10.5 3L7.5 7.5" stroke="rgb(255,255,255)" stroke-linecap="round" stroke-linejoin="round" stroke-width="2" />
</svg>
